<svg width="21" height="20" viewBox="0 0 21 20" fill="none" xmlns="http://www.w3.org/2000/svg">
<path d="M19.9936 7.23411C19.9305 7.0512 19.8156 6.89054 19.663 6.77161C19.5103 6.65269 19.3264 6.58061 19.1336 6.56411L13.4436 5.73411L10.8936 0.56411C10.8117 0.395039 10.6839 0.252452 10.5247 0.152683C10.3655 0.052915 10.1815 0 9.99363 0C9.80577 0 9.62171 0.052915 9.46254 0.152683C9.30337 0.252452 9.17551 0.395039 9.09363 0.56411L6.54363 5.72411L0.85363 6.56411C0.668552 6.59042 0.494554 6.66807 0.35138 6.78827C0.208206 6.90846 0.10159 7.06638 0.0436298 7.24411C-0.00942525 7.41778 -0.0141863 7.60263 0.0298575 7.7788C0.0739014 7.95498 0.165087 8.11584 0.29363 8.24411L4.42363 12.2441L3.42363 17.9241C3.38326 18.1125 3.39818 18.3086 3.46661 18.4887C3.53505 18.6689 3.65407 18.8254 3.80936 18.9395C3.96465 19.0536 4.1496 19.1204 4.34196 19.1319C4.53432 19.1433 4.72589 19.099 4.89363 19.0041L9.99363 16.3341L15.0936 19.0041C15.234 19.0833 15.3925 19.1246 15.5536 19.1241C15.7655 19.1249 15.972 19.0583 16.1436 18.9341C16.2988 18.823 16.4189 18.6698 16.4898 18.4926C16.5606 18.3154 16.5793 18.1216 16.5436 17.9341L15.5436 12.2541L19.6736 8.25411C19.818 8.13179 19.9247 7.97101 19.9814 7.79046C20.038 7.6099 20.0423 7.41698 19.9936 7.23411ZM13.8436 11.2341C13.7279 11.3465 13.6411 11.4853 13.5906 11.6385C13.5401 11.7917 13.5274 11.9549 13.5536 12.1141L14.2736 16.3141L10.5136 14.3141C10.3675 14.2418 10.2067 14.2042 10.0436 14.2042C9.8806 14.2042 9.71976 14.2418 9.57363 14.3141L5.81363 16.3141L6.53363 12.1141C6.55987 11.9549 6.5472 11.7917 6.4967 11.6385C6.4462 11.4853 6.35937 11.3465 6.24363 11.2341L3.24363 8.23411L7.45363 7.62411C7.61563 7.60158 7.76963 7.53965 7.90213 7.44376C8.03463 7.34787 8.14159 7.22095 8.21363 7.07411L9.99363 3.26411L11.8736 7.08411C11.9457 7.23095 12.0526 7.35787 12.1851 7.45376C12.3176 7.54965 12.4716 7.61158 12.6336 7.63411L16.8436 8.24411L13.8436 11.2341Z" fill="#050510"/>
</svg>
